PathFileType	4	(X/Y/Z)	./resultDataOpenSim/trcMotMarkerGrf/sub10/qtm-02-02.trc
DataRate	CameraRate	NumFrames	NumMarkers	Units	OrigDataRate	OrigDataStartFrame	OrigNumFrames
250.000000	250.000000	10	24	m	250.000000	1	491
Frame#	Time	L.Toe.Tip			R.Toe.Tip			L.Ankle.Lat			R.Ankle.Lat			L.Ankle.Med			R.Ankle.Med			L.Heel			R.Heel			L.Knee.Lat			R.Knee.Lat			L.Knee.Med			R.Knee.Med			L.Thigh.Upper			R.Thigh.Upper			L.ASIS			R.ASIS			V.Sacral			L.Acromium			R.Acromium			C7			L.Elbow			R.Elbow			L.Wrist.Lat			R.Wrist.Lat
		X1	Y1	Z1	X2	Y2	Z2	X3	Y3	Z3	X4	Y4	Z4	X5	Y5	Z5	X6	Y6	Z6	X7	Y7	Z7	X8	Y8	Z8	X9	Y9	Z9	X10	Y10	Z10	X11	Y11	Z11	X12	Y12	Z12	X13	Y13	Z13	X14	Y14	Z14	X15	Y15	Z15	X16	Y16	Z16	X17	Y17	Z17	X18	Y18	Z18	X19	Y19	Z19	X20	Y20	Z20	X21	Y21	Z21	X22	Y22	Z22	X23	Y23	Z23	X24	Y24	Z24

1	0	-1.5359965	0.037156651	-0.21444681	-0.94286082	0.12896351	-0.072677081	-1.6662318	0.066477332	-0.24338576	-1.0739903	0.074142747	-0.057883558	-1.6601173	0.088535087	-0.15951887	-1.0617989	0.11905306	-0.13371263	NaN	NaN	NaN	-1.0988648	0.035198978	-0.11720542	-1.5276861	0.42997348	-0.27168201	-1.2331897	0.4422523	-0.00025132102	-1.5302349	0.40682592	-0.15076596	-1.2173242	0.45448088	-0.1306225	-1.4194709	0.80986309	-0.32484806	-1.3768841	0.83166989	0.05815711	-1.3482659	0.91369505	-0.26652621	-1.3183157	0.92453775	-0.020220608	-1.5284434	0.93146919	-0.12352262	-1.3406062	1.3755303	-0.30420088	-1.3948248	1.3917759	0.01497908	-1.444993	1.4212545	-0.16292615	-1.3518128	1.0255756	-0.34184543	NaN	NaN	NaN	-1.146602	0.90568127	-0.26265827	-1.5099612	0.87238769	0.13537694
2	0.004	-1.5359826	0.037098077	-0.21441653	-0.93325705	0.13088531	-0.07227293	-1.6660354	0.067000634	-0.24322341	-1.0641091	0.075008952	-0.056104615	-1.6594924	0.089054189	-0.15933	-1.0524669	0.11991623	-0.13202963	NaN	NaN	NaN	-1.0889548	0.035726283	-0.11484763	-1.5249167	0.42957218	-0.27167071	-1.2269972	0.4416401	0.00095222901	-1.5273963	0.40632509	-0.15065549	-1.2124754	0.45316243	-0.12955028	-1.4154559	0.80902244	-0.3247906	-1.3714419	0.83051678	0.058397683	-1.3437224	0.91282751	-0.26650116	-1.3136137	0.92337922	-0.020398612	-1.523809	0.93024411	-0.12281305	-1.3360748	1.3743526	-0.30405069	-1.3900746	1.3905444	0.015111947	-1.4406211	1.4201192	-0.16290552	-1.3465738	1.024347	-0.34119722	NaN	NaN	NaN	-1.1409488	0.90570476	-0.26128186	-1.5067235	0.87120368	0.13503441
3	0.008	-1.5359506	0.037048663	-0.21439533	-0.92390606	0.13258592	-0.071691771	-1.6658507	0.067576844	-0.24306238	-1.0544379	0.075799506	-0.054310573	-1.6588447	0.08957624	-0.15913923	-1.0432812	0.1206965	-0.13035556	NaN	NaN	NaN	-1.0792696	0.036184373	-0.11243009	-1.5221041	0.42916097	-0.27168111	-1.2209487	0.44106378	0.0021153299	-1.5245924	0.4058351	-0.15052107	-1.2075506	0.45187784	-0.12844916	-1.4114124	0.8081962	-0.32476787	-1.3659327	0.82939892	0.058635336	-1.3391682	0.91197049	-0.26644445	-1.308818	0.92222888	-0.020563622	-1.519202	0.92898805	-0.12215614	-1.3315293	1.3731954	-0.30389877	-1.3854281	1.3893033	0.015254281	-1.4362247	1.4190126	-0.16287382	-1.3413364	1.0231301	-0.34058139	NaN	NaN	NaN	-1.1352972	0.90573753	-0.25993704	-1.5033616	0.87003328	0.13469644
4	0.012	-1.5358953	0.037011282	-0.21438472	-0.91494279	0.13392104	-0.070873039	-1.6656625	0.06823408	-0.24289626	-1.0451368	0.076467742	-0.052504267	-1.6581104	0.090128663	-0.15893696	-1.0343469	0.12134357	-0.12868442	NaN	NaN	NaN	-1.0699705	0.036546784	-0.10994613	-1.5192216	0.42873748	-0.27170528	-1.2149848	0.44054667	0.003238676	-1.5217131	0.40537571	-0.15037533	-1.2024904	0.45066788	-0.12730014	-1.407341	0.80738925	-0.32477305	-1.3603426	0.82834222	0.058866634	-1.3345401	0.91113039	-0.26633585	-1.3038897	0.92109321	-0.020712141	-1.5146004	0.92771343	-0.12153489	-1.3269507	1.3720622	-0.30374083	-1.3808715	1.3880632	0.015423341	-1.431771	1.4179461	-0.16277663	-1.3360939	1.0219339	-0.33999793	NaN	NaN	NaN	-1.1296412	0.90577523	-0.25863135	-1.4998066	0.86888605	0.13436615
5	0.016	-1.5358269	0.036981963	-0.21438053	-0.90641734	0.13485654	-0.069884819	-1.6654471	0.068964875	-0.24272073	-1.0363381	0.076990221	-0.050712837	-1.6572392	0.090738089	-0.15872203	-1.0258511	0.12181545	-0.12701646	NaN	NaN	NaN	-1.0611981	0.036837097	-0.10749258	-1.5162628	0.42831104	-0.27172403	-1.2089395	0.44011377	0.0043400122	-1.5186368	0.40494728	-0.15025105	-1.1972621	0.44957139	-0.12610567	-1.4032667	0.80660168	-0.32478415	-1.3547151	0.82735847	0.05908726	-1.3298717	0.9103084	-0.26620401	-1.2988892	0.91997898	-0.020858803	-1.5099914	0.92644244	-0.12091979	-1.3223282	1.3709486	-0.30357022	-1.3763138	1.3868446	0.01563151	-1.4272526	1.4169182	-0.16257961	-1.3308479	1.0207673	-0.3394281	NaN	NaN	NaN	-1.1239875	0.90580804	-0.25736193	-1.4961095	0.86776535	0.13405212
6	0.02	-1.5357592	0.036956561	-0.21437909	-0.89833741	0.13541244	-0.068777158	-1.6652031	0.069748188	-0.24254575	-1.0281112	0.077348062	-0.048952003	-1.6562661	0.091398379	-0.15851903	-1.0179652	0.12207243	-0.12535846	NaN	NaN	NaN	-1.0530476	0.03707133	-0.10517849	-1.5132331	0.42790055	-0.27172377	-1.2027339	0.43978623	0.0054246211	-1.5153784	0.40452178	-0.15015593	-1.1918488	0.44861905	-0.12488821	-1.3992039	0.80583667	-0.32479369	-1.349099	0.82644117	0.059294694	-1.3252748	0.90950089	-0.26611055	-1.2938527	0.91889912	-0.021009919	-1.5053839	0.92517939	-0.12031168	-1.3176587	1.369855	-0.30338631	-1.3716805	1.3856568	0.01586674	-1.4226919	1.4159218	-0.16232829	-1.3256009	1.019638	-0.33885673	NaN	NaN	NaN	-1.1183504	0.90583198	-0.25613203	-1.492349	0.86666713	0.13376764
7	0.024	-1.5356981	0.036935389	-0.21437968	-0.89069926	0.13562608	-0.067559798	-1.6649395	0.07057769	-0.24238585	-1.0204371	0.077532255	-0.047200443	-1.6552884	0.092083306	-0.15836451	-1.0106616	0.12211281	-0.12370251	NaN	NaN	NaN	-1.0455097	0.03720818	-0.10298548	-1.5101418	0.42752257	-0.27169603	-1.1963843	0.43957567	0.0064904498	-1.5120369	0.40408269	-0.15006636	-1.1862506	0.44783476	-0.12367823	-1.3951583	0.80510189	-0.32479492	-1.3435179	0.82557424	0.059492906	-1.3207947	0.90870575	-0.26609519	-1.2887408	0.91787113	-0.021148789	-1.5007758	0.92392929	-0.11971365	-1.3129512	1.368793	-0.3031957	-1.3669558	1.3845012	0.01609981	-1.4181137	1.4149541	-0.16208836	-1.3203542	1.0185519	-0.33827866	NaN	NaN	NaN	-1.1127416	0.90584631	-0.25494623	-1.4885299	0.86558424	0.13352531
8	0.028	-1.5356411	0.036920346	-0.21438253	-0.88350369	0.13557089	-0.066326815	-1.6646504	0.071464803	-0.24224993	-1.0132443	0.077557302	-0.04541588	-1.6543673	0.092789859	-0.15827679	-1.0037922	0.12196851	-0.12202135	NaN	NaN	NaN	-1.0385043	0.03718977	-0.1007981	-1.5069885	0.42717867	-0.27164646	-1.1899152	0.43949167	0.0075344251	-1.5086631	0.40364421	-0.14996228	-1.1804686	0.44722835	-0.12249798	-1.3911359	0.80440585	-0.32477229	-1.3379468	0.82475469	0.059695689	-1.316393	0.90792054	-0.26615608	-1.2835087	0.91690637	-0.02125694	-1.4961523	0.92270082	-0.11911893	-1.3082217	1.3677801	-0.30300046	-1.3621728	1.3833789	0.016315573	-1.4135224	1.4140218	-0.16187521	-1.3151069	1.0175133	-0.33769569	NaN	NaN	NaN	-1.1071644	0.90585325	-0.25379971	-1.4846227	0.86450883	0.13332535
9	0.032	-1.5355814	0.036911484	-0.21438793	-0.87673701	0.13531479	-0.065182765	-1.6643241	0.072418843	-0.2421517	-1.0064622	0.077454397	-0.04355898	-1.6534913	0.093550896	-0.15824951	-0.99727833	0.12165673	-0.12028617	NaN	NaN	NaN	-1.0319639	0.037002737	-0.098533587	-1.5037673	0.42686026	-0.27159304	-1.1833486	0.43953301	0.0085491839	-1.5052478	0.40322336	-0.14984368	-1.1744928	0.44679337	-0.12135439	-1.3871399	0.80375721	-0.32471555	-1.3323365	0.82399941	0.059922278	-1.3120155	0.90713633	-0.26626819	-1.2781491	0.91600565	-0.02133066	-1.4915083	0.92149806	-0.11852374	-1.3034799	1.3668269	-0.30279137	-1.3573846	1.3822962	0.016527684	-1.4089086	1.4131345	-0.16166813	-1.3098577	1.0165221	-0.33710877	NaN	NaN	NaN	-1.1016207	0.90586022	-0.25268078	-1.4806275	0.86343932	0.13315081
10	0.036	-1.5355129	0.036907506	-0.21439782	-0.87035677	0.13486147	-0.064081448	-1.6639605	0.073435668	-0.24210653	-1.0000507	0.077252867	-0.041605896	-1.6526391	0.094394112	-0.15826584	-0.99114225	0.12116491	-0.11848435	NaN	NaN	NaN	-1.0258531	0.03667308	-0.096173426	-1.5004836	0.42656217	-0.27154562	-1.1766884	0.43968357	0.0095324258	-1.5017833	0.40282315	-0.14971988	-1.1683143	0.44651693	-0.12024671	-1.3831662	0.80316281	-0.32462173	-1.3266828	0.82332382	0.060184934	-1.307627	0.90634709	-0.26640412	-1.2727074	0.91516339	-0.021378836	-1.4868513	0.92032292	-0.11793133	-1.2987177	1.3659353	-0.30255249	-1.3526116	1.3812658	0.016766254	-1.404263	1.4122966	-0.16144125	-1.304607	1.0155777	-0.33651555	NaN	NaN	NaN	-1.0961132	0.90587317	-0.25157864	-1.4765562	0.86238895	0.13299439
